<svg xmlns="http://www.w3.org/2000/svg" viewBox="0 0 1024 1024" fill="none">
  <rect width="1024" height="1024" rx="224" fill="#0B1220"/>
  <path
    d="M52.3796 18.6329L45.2375 25.8057C46.9126 27.9225 47.9189 30.5855 47.9189 33.4939C47.9189 40.3537 42.3598 45.9127 35.5 45.9127C28.6402 45.9127 23.0811 40.3537 23.0811 33.4939C23.0811 26.634 28.6402 21.075 35.5 21.075C35.5123 21.075 35.5307 21.075 35.543 21.075L35.5245 11C35.5245 11 35.5061 11 35.5 11C23.075 11 13 21.075 13 33.5C13 45.925 23.075 56 35.5 56C47.925 56 58 45.925 58 33.5C58 27.7998 55.877 22.5967 52.3796 18.6329Z"
    fill="#1F6FFF"
    transform="translate(512 512) scale(14.2) translate(-35.5 -33.5)"
  />
</svg>
